<svg width="172" height="164" viewBox="0 0 172 164" fill="none" xmlns="http://www.w3.org/2000/svg">
<path d="M84.9266 164C67.811 164 52.3536 156.668 42.2856 151.163C29.7598 144.347 15.9311 135.691 8.23207 123.286C0.533009 110.881 0 95.3112 0 81.6376C0 67.964 0.636653 52.1438 8.14324 39.9476C14.5542 29.4938 25.5401 20.1411 41.723 11.318C54.7976 4.05255 69.6709 0.149518 84.8526 0C101.139 0 116.641 3.61009 128.678 10.1751C142.462 17.674 151.79 30.9434 158.379 41.676C164.715 51.9905 172 65.8453 172 81.6376C172 93.1926 170.238 109.835 161.843 123.453C154.44 135.607 140.73 143.72 127.39 150.981C116.359 157.059 101.494 164 84.9266 164Z" fill="white"/>
</svg>
