<svg width="159" height="360" viewBox="0 0 159 360" fill="none" xmlns="http://www.w3.org/2000/svg">
<path d="M91.2161 360C85.3529 360 82.4904 357.928 79.4646 355.746C75.9064 352.749 71.5123 351.162 67.01 351.247C49.9728 351.247 36.5138 345.247 24.6619 332.39C12.81 319.532 0.932868 305.12 0.932868 286.4C0.932868 268.43 1.09608 259.281 1.24674 250.445C1.3974 241.61 1.54805 232.461 1.54805 214.477C1.47494 202.487 1.95686 190.501 2.99191 178.563C4.03884 166.586 4.52497 154.558 4.44834 142.527C4.56478 130.461 3.81333 118.403 2.20094 106.463C0.609141 94.5863 -0.121284 82.5918 0.0163757 70.5905C0.0163757 51.502 7.54939 31.05 19.0875 18.4788C32.7348 3.67159 55.0073 1.46276 67.0727 1.46276C71.1426 1.50434 75.2107 1.25838 79.2511 0.726471C83.2421 0.207424 87.2595 -0.0339459 91.2789 0.00383559C109.094 0.00383559 126.571 7.42112 138.009 19.8423C149.446 32.2635 151.041 51.5838 151.041 70.5905C150.953 82.6291 151.527 94.6627 152.761 106.627C153.981 118.542 154.542 130.525 154.443 142.513C154.325 154.581 155.085 166.64 156.716 178.577C158.346 190.455 159.106 202.455 158.988 214.464C158.988 232.42 158.26 241.542 157.569 250.377C156.879 259.213 156.138 268.389 156.138 286.4C156.138 307.943 149.936 327.549 139.54 338.839C127.839 351.492 108.442 360 91.2161 360Z" fill="#FF9C40"/>
</svg>
